<?xml version="1.0" standalone="no"?>
<!DOCTYPE svg PUBLIC "-//W3C//DTD SVG 20010904//EN"
 "http://www.w3.org/TR/2001/REC-SVG-20010904/DTD/svg10.dtd">
<svg version="1.0" xmlns="http://www.w3.org/2000/svg"
 width="784.000000pt" height="784.000000pt" viewBox="0 0 784.000000 784.000000"
 preserveAspectRatio="xMidYMid meet">
<metadata>
Created by potrace 1.14, written by Peter Selinger 2001-2017
</metadata>
<g transform="translate(0.000000,784.000000) scale(0.100000,-0.100000)"
fill="#000000" stroke="none">
<path d="M3717 7794 c-1 -1 -49 -5 -106 -8 -58 -4 -114 -8 -125 -11 -12 -2
-46 -7 -76 -11 -77 -9 -94 -11 -127 -18 -15 -4 -41 -9 -58 -12 -23 -4 -127
-28 -210 -48 -98 -24 -291 -90 -400 -136 -129 -55 -249 -113 -253 -122 -2 -5
-12 -8 -23 -8 -10 0 -19 -4 -19 -8 0 -4 -12 -13 -27 -19 -16 -7 -50 -26 -78
-43 -27 -17 -57 -33 -65 -37 -8 -4 -38 -24 -67 -45 -29 -21 -55 -38 -58 -38
-10 0 -250 -182 -320 -242 -45 -40 -240 -225 -259 -247 -12 -13 -34 -38 -51
-55 -69 -72 -235 -288 -235 -306 0 -5 -4 -10 -8 -10 -5 0 -17 -18 -28 -40 -10
-22 -22 -40 -26 -40 -3 0 -13 -12 -21 -27 -7 -16 -39 -76 -70 -135 -32 -59
-57 -113 -57 -119 0 -7 -7 -20 -15 -29 -8 -9 -16 -25 -18 -36 -2 -10 -10 -35
-19 -54 -8 -19 -25 -66 -37 -105 -12 -38 -25 -77 -28 -85 -7 -17 -7 -17 -26
-90 -13 -46 -24 -97 -42 -190 -2 -8 -4 -15 -5 -15 -1 0 -3 -18 -5 -40 -3 -22
-7 -56 -10 -75 -3 -19 -8 -66 -12 -105 -5 -38 -8 -1211 -8 -2604 l0 -2535 439
0 c341 -1 440 2 443 11 3 7 6 1139 8 2515 1 1377 5 2524 8 2549 6 49 13 97 22
139 2 14 7 39 10 55 11 56 46 170 82 265 32 84 136 297 152 310 3 3 28 39 55
80 99 151 312 386 448 495 35 27 65 52 68 55 3 3 30 23 60 45 30 22 57 43 58
47 2 5 8 8 13 8 6 0 37 18 70 40 63 44 259 145 349 180 96 38 246 85 309 97
14 2 28 6 32 8 4 3 26 7 49 10 24 3 46 7 49 9 6 4 57 11 161 22 19 2 96 6 170
9 74 3 143 8 153 10 9 1 17 0 17 -3 0 -4 28 -7 63 -8 71 0 238 -13 247 -19 3
-2 24 -6 46 -9 132 -18 351 -77 469 -126 100 -41 232 -105 290 -140 28 -16 59
-34 70 -39 16 -7 159 -106 200 -138 102 -79 184 -153 273 -247 32 -33 67 -70
80 -83 12 -13 22 -26 22 -29 0 -3 9 -15 21 -27 12 -12 32 -38 45 -57 13 -19
37 -54 53 -77 29 -40 63 -99 114 -196 74 -138 146 -359 172 -527 2 -14 6 -39
9 -55 26 -144 25 -500 -1 -620 -2 -11 -6 -36 -9 -55 -2 -19 -7 -43 -10 -52 -3
-9 -7 -26 -9 -39 -7 -35 -35 -131 -49 -169 -8 -19 -14 -38 -15 -43 0 -4 -8
-23 -16 -43 -8 -20 -15 -38 -15 -40 0 -14 -105 -213 -149 -284 -54 -87 -148
-214 -210 -285 -56 -63 -253 -258 -289 -285 -19 -14 -41 -32 -50 -41 -28 -26
-121 -89 -132 -89 -6 0 -10 -4 -10 -8 0 -7 -90 -63 -169 -105 -60 -31 -231
-106 -231 -101 0 2 -13 -2 -30 -11 -16 -9 -30 -12 -30 -8 0 4 -5 2 -12 -5 -7
-7 -22 -12 -33 -12 -12 0 -25 -3 -29 -7 -3 -4 -12 -8 -19 -10 -7 -1 -39 -9
-72 -18 -33 -8 -73 -17 -90 -20 -16 -3 -37 -8 -45 -10 -15 -5 -76 -14 -135
-21 -16 -1 -48 -5 -70 -8 -121 -16 -378 -22 -480 -11 -27 3 -68 7 -90 9 -42 4
-70 8 -192 31 -16 3 -67 15 -115 26 -48 12 -90 21 -92 21 -3 0 -97 31 -208 69
-112 39 -207 71 -213 73 -5 2 -21 8 -35 13 -30 13 -31 12 -59 -57 -13 -30 -34
-79 -47 -108 -13 -29 -24 -55 -24 -57 0 -2 -11 -28 -24 -57 -13 -29 -45 -102
-71 -163 -26 -60 -53 -124 -60 -140 -21 -46 -38 -89 -39 -97 -1 -3 -4 -10 -8
-14 -21 -20 -5 -40 45 -58 28 -10 66 -24 82 -31 17 -7 57 -23 90 -35 33 -12
69 -26 80 -30 20 -8 45 -17 55 -18 3 -1 32 -11 65 -22 57 -20 70 -24 113 -34
9 -2 62 -15 117 -29 55 -14 116 -28 135 -31 19 -3 45 -8 56 -10 12 -2 39 -7
60 -10 22 -3 55 -8 74 -11 129 -20 259 -28 465 -28 233 -1 389 10 550 39 17 3
44 7 60 9 17 2 30 4 30 5 0 1 14 4 30 6 54 9 268 65 365 96 232 75 463 182
695 321 35 21 237 159 245 167 3 3 23 19 45 35 113 84 259 212 371 324 98 97
249 275 273 319 6 11 17 26 24 34 17 17 99 142 137 210 83 148 190 391 199
451 0 4 8 21 16 37 9 17 14 30 11 30 -2 0 5 28 15 62 11 34 22 78 25 98 3 19
8 38 10 41 2 4 6 24 9 45 3 22 8 50 12 64 6 27 6 27 17 115 18 143 22 232 20
420 -2 110 -6 214 -8 230 -3 17 -8 53 -11 80 -4 41 -21 131 -50 278 -2 9 -6
21 -9 25 -3 5 -8 22 -11 39 -8 46 -59 200 -100 300 -54 133 -131 281 -218 423
-35 57 -153 223 -176 247 -12 12 -21 25 -21 28 0 3 -12 18 -27 33 -16 15 -40
43 -55 62 -34 45 -215 228 -301 304 -129 114 -446 346 -473 346 -3 0 -18 8
-32 19 -40 28 -204 111 -312 158 -95 42 -278 109 -308 114 -4 0 -13 5 -19 11
-7 6 -13 8 -13 4 0 -3 -11 -1 -25 4 -14 5 -36 12 -48 14 -12 3 -47 12 -77 20
-30 8 -66 17 -80 20 -14 3 -50 10 -80 15 -30 6 -66 14 -80 17 -28 6 -59 10
-140 19 -30 3 -66 8 -80 10 -71 13 -551 29 -563 19z"/>
</g>
</svg>
