<svg width="48" height="48" viewBox="0 0 48 48" fill="none" xmlns="http://www.w3.org/2000/svg">
<path d="M23.8602 39.3495C23.5579 41.1354 21.9471 42.5001 20.0027 42.5001C18.0635 42.5001 16.4527 41.1354 16.1504 39.3495" stroke="#F8F8F8" stroke-width="1.5" stroke-miterlimit="10" stroke-linejoin="round"/>
<path d="M26.8758 22.7845C26.8758 22.7845 27.0843 17.828 22.7055 16.4484C22.1581 16.2779 21.1885 16.0821 19.9844 16.057C18.7958 16.0821 17.8419 16.2779 17.2945 16.4484C12.9157 17.828 13.1243 22.7845 13.1243 22.7845C13.1243 29.9684 8 32.522 8 32.522C8 35.0454 8 36.992 8 36.992H32C32 36.992 32 35.0454 32 32.522C32.0052 32.522 26.8758 29.9684 26.8758 22.7845Z" stroke="#F8F8F8" stroke-width="1.5" stroke-miterlimit="10" stroke-linejoin="round"/>
<path d="M20.0052 11C21.4544 11 22.6325 12.1338 22.6325 13.5284C22.6325 14.9231 21.4544 16.0569 20.0052 16.0569C18.5561 16.0569 17.3779 14.9231 17.3779 13.5284C17.3779 12.1338 18.5508 11 20.0052 11Z" stroke="#F8F8F8" stroke-width="1.5" stroke-miterlimit="10" stroke-linejoin="round"/>
<rect x="19" y="5" width="21" height="20" rx="10" fill="#FF4842"/>
<path d="M29.5576 20.18C28.8456 20.18 28.2576 20.064 27.7936 19.832C27.3296 19.592 26.9896 19.284 26.7736 18.908C26.5656 18.532 26.4616 18.128 26.4616 17.696C26.4616 17.28 26.5416 16.932 26.7016 16.652C26.8696 16.364 27.0576 16.148 27.2656 16.004C27.4736 15.86 27.6576 15.764 27.8176 15.716V15.668C27.6736 15.612 27.5136 15.508 27.3376 15.356C27.1696 15.204 27.0176 15 26.8816 14.744C26.7536 14.48 26.6896 14.176 26.6896 13.832C26.6896 13.44 26.7856 13.064 26.9776 12.704C27.1776 12.336 27.4936 12.036 27.9256 11.804C28.3576 11.572 28.9016 11.456 29.5576 11.456C30.2296 11.456 30.7776 11.576 31.2016 11.816C31.6336 12.048 31.9456 12.344 32.1376 12.704C32.3296 13.064 32.4256 13.44 32.4256 13.832C32.4256 14.176 32.3576 14.48 32.2216 14.744C32.0936 15 31.9416 15.204 31.7656 15.356C31.5976 15.508 31.4456 15.612 31.3096 15.668V15.716C31.4696 15.764 31.6496 15.86 31.8496 16.004C32.0576 16.148 32.2456 16.364 32.4136 16.652C32.5816 16.932 32.6656 17.28 32.6656 17.696C32.6656 18.128 32.5576 18.532 32.3416 18.908C32.1336 19.284 31.7936 19.592 31.3216 19.832C30.8576 20.064 30.2696 20.18 29.5576 20.18ZM29.5576 15.164C29.9976 15.164 30.3216 15.048 30.5296 14.816C30.7456 14.576 30.8536 14.296 30.8536 13.976C30.8536 13.664 30.7456 13.388 30.5296 13.148C30.3136 12.908 29.9896 12.788 29.5576 12.788C29.1176 12.788 28.7896 12.908 28.5736 13.148C28.3656 13.38 28.2616 13.656 28.2616 13.976C28.2616 14.304 28.3656 14.584 28.5736 14.816C28.7896 15.048 29.1176 15.164 29.5576 15.164ZM29.5576 18.812C30.0456 18.812 30.4056 18.68 30.6376 18.416C30.8776 18.152 30.9976 17.848 30.9976 17.504C30.9976 17.144 30.8776 16.832 30.6376 16.568C30.3976 16.296 30.0376 16.16 29.5576 16.16C29.0776 16.16 28.7176 16.296 28.4776 16.568C28.2376 16.832 28.1176 17.144 28.1176 17.504C28.1176 17.864 28.2336 18.172 28.4656 18.428C28.7056 18.684 29.0696 18.812 29.5576 18.812Z" fill="white"/>
</svg>
