<svg width="247" height="51" viewBox="0 0 247 51" fill="none" xmlns="http://www.w3.org/2000/svg">
<path d="M92.9514 5.49622H97.0183V10.6821H91.377V5.49622H92.9514Z" fill="white"/>
<path d="M92.9514 13.4995H97.0183V49.7105H91.377V13.4995H92.9514Z" fill="white"/>
<path d="M145.26 24.4102C146.288 26.6098 146.808 28.9854 146.808 31.5446V49.7099H141.232V31.5446C141.232 29.6614 140.865 27.9282 140.131 26.3455C139.395 24.7573 138.279 23.2937 136.785 21.9559L136.773 21.9503C135.271 20.5772 133.651 19.5542 131.907 18.8815C130.168 18.2111 128.271 17.8757 126.21 17.8757C124.182 17.8757 122.302 18.2111 120.57 18.8815C118.835 19.5537 117.215 20.5769 115.712 21.9503L115.7 21.9559C114.206 23.2939 113.091 24.7573 112.354 26.3455C111.621 27.9282 111.254 29.6614 111.254 31.5446V49.7099H105.678V31.5446C105.678 28.9846 106.178 26.6108 107.186 24.4158C108.191 22.2313 109.698 20.2351 111.718 18.4198L111.715 18.4171C113.728 16.5766 115.949 15.1996 118.375 14.2785C120.803 13.3566 123.415 12.8996 126.21 12.8996C129.005 12.8996 131.616 13.3566 134.045 14.2785C136.47 15.1996 138.691 16.5766 140.705 18.4171L140.702 18.4198C142.714 20.2285 144.236 22.2229 145.26 24.4102Z" fill="white"/>
<path d="M169.242 44.3352C170.95 44.9987 172.763 45.3338 174.686 45.3338H176.261V50.3098H174.686C171.894 50.3098 169.281 49.8517 166.859 48.9357C164.437 48.0199 162.233 46.6585 160.257 44.8522C158.281 43.0462 156.774 41.0305 155.747 38.8143C154.728 36.6154 154.196 34.2347 154.161 31.6815L154.154 31.6647V0.309998H159.73V13.4993H167.602V18.5354H159.73V31.7247C159.73 33.5993 160.111 35.3268 160.866 36.9069C161.624 38.4947 162.766 39.9565 164.283 41.291C165.853 42.6431 167.504 43.6605 169.242 44.3352Z" fill="white"/>
<path d="M216.644 22.7003C217.787 24.5958 218.55 26.6866 218.94 28.9878L219.221 30.6459H188.396V25.6099H212.208C211.847 24.926 211.426 24.2826 210.944 23.6795C210.038 22.5458 208.907 21.5401 207.558 20.6639L207.54 20.6527C206.214 19.7642 204.815 19.1023 203.357 18.6613C201.884 18.2155 200.346 17.996 198.76 17.996C196.834 17.996 195.023 18.3299 193.322 19.0039C191.595 19.6881 189.95 20.7302 188.381 22.1364C186.849 23.5091 185.698 24.9957 184.936 26.5886C184.184 28.1592 183.804 29.8538 183.804 31.6649C183.804 33.5448 184.173 35.28 184.903 36.877C185.635 38.4795 186.735 39.9594 188.194 41.3218L188.197 41.3191C189.661 42.657 191.279 43.6636 193.036 44.331C194.79 44.9971 196.703 45.334 198.76 45.334C201.008 45.334 203.063 44.954 204.917 44.1877C206.764 43.4248 208.431 42.2752 209.912 40.7326L210.976 39.6239L215.067 43.0759L213.911 44.133C209.406 48.2508 204.378 50.31 198.76 50.31C195.964 50.31 193.369 49.853 190.958 48.9311C188.547 48.0087 186.343 46.6315 184.331 44.7925L184.325 44.7813C182.344 42.9388 180.856 40.9282 179.86 38.7429C178.86 36.5471 178.359 34.1902 178.359 31.6649C178.359 29.1127 178.861 26.7247 179.863 24.511C180.865 22.298 182.355 20.2837 184.331 18.4776C188.312 14.8393 193.146 13.0199 198.76 13.0199C201.267 13.0199 203.63 13.3963 205.859 14.1573C208.089 14.9183 210.153 16.0536 212.06 17.5708C213.968 19.0885 215.493 20.7932 216.644 22.7003Z" fill="white"/>
<path d="M237.801 14.2428C240.198 13.3447 242.734 12.8996 245.4 12.8996H246.974V17.8757H245.4C243.333 17.8757 241.415 18.2128 239.665 18.887C237.914 19.561 236.302 20.5787 234.843 21.9391L234.837 21.9503C233.373 23.2883 232.271 24.7673 231.541 26.3726C230.812 27.9754 230.444 29.7241 230.444 31.6045V49.7099H224.999V31.6045C224.999 28.9298 225.519 26.4636 226.558 24.215C227.598 21.9641 229.149 19.9574 231.21 18.2033C233.244 16.4437 235.444 15.1257 237.801 14.2428Z" fill="white"/>
<path d="M82.5212 24.5208C83.53 26.7156 84.0301 29.0744 84.0301 31.6045C84.0301 34.1604 83.53 36.5319 82.5212 38.7349C81.5119 40.9388 80.0054 42.9528 77.9931 44.7919C76.0129 46.6016 73.8255 47.9639 71.423 48.878C69.0204 49.7923 66.425 50.2494 63.6293 50.2494C60.834 50.2494 58.239 49.7923 55.8274 48.878C53.4282 47.9685 51.2284 46.6081 49.2122 44.7975L49.1938 44.7807C47.2128 42.9379 45.7243 40.9275 44.7291 38.7349C43.7287 36.5309 43.2285 34.1592 43.2285 31.6045C43.2285 29.0492 43.7287 26.6774 44.7291 24.4814C45.7295 22.2856 47.2198 20.2867 49.2 18.477L49.2029 18.4797C51.1805 16.6422 53.3759 15.2672 55.7791 14.3474C58.2042 13.4194 60.8242 12.9594 63.6293 12.9594C66.4304 12.9594 69.0277 13.4163 71.4292 14.3384C73.8195 15.2561 76.0038 16.6338 77.9901 18.4797L77.9931 18.477C80.008 20.3185 81.5145 22.3306 82.5212 24.5208ZM77.488 36.8365C78.2169 35.2336 78.5855 33.4849 78.5855 31.6045C78.5855 29.7514 78.2184 28.0332 77.4849 26.4505C76.7495 24.8641 75.6297 23.3837 74.1271 22.0103L74.1209 21.999C72.657 20.6337 71.0558 19.6144 69.318 18.9415C67.5862 18.271 65.6898 17.9356 63.6293 17.9356C61.5683 17.9356 59.6715 18.271 57.9325 18.9415C56.1884 19.6141 54.5682 20.6371 53.066 22.0103L53.063 22.0075C51.6065 23.3678 50.507 24.849 49.7718 26.4505C49.0421 28.0406 48.6732 29.7589 48.6732 31.6045C48.6732 33.4849 49.0417 35.2336 49.7706 36.8365C50.5008 38.4417 51.602 39.9206 53.066 41.2585C54.5301 42.5965 56.1484 43.603 57.9048 44.2704C59.6587 44.9366 61.572 45.2734 63.6293 45.2734C65.6868 45.2734 67.6 44.9366 69.3539 44.2704C71.1103 43.603 72.7286 42.5965 74.1925 41.2585C75.6567 39.9206 76.7578 38.4417 77.488 36.8365Z" fill="white"/>
<path d="M38.0508 12.5364C37.0967 10.4215 35.6762 8.46951 33.7991 6.6892C31.9112 4.8987 29.7816 3.54427 27.4204 2.63525C25.063 1.72742 22.5011 1.26926 19.745 1.26926C17.1453 1.26926 14.6975 1.71179 12.394 2.58835C10.1165 3.45471 7.99082 4.74966 6.00827 6.46454C4.00917 8.19352 2.5084 10.1213 1.50671 12.2629C0.502237 14.4103 0 16.7559 0 19.3147V49.7102H5.57594V19.3746C5.57594 17.6108 5.92626 15.9823 6.61928 14.4754C7.32123 12.949 8.38112 11.5205 9.79021 10.1778C11.2142 8.85171 12.7503 7.86571 14.4048 7.21381C16.0489 6.56616 17.8268 6.24531 19.745 6.24531C23.5892 6.24531 26.9574 7.48572 29.7301 9.96601C31.123 11.2117 32.1717 12.6142 32.8685 14.1659C33.563 15.7124 33.9138 17.431 33.9138 19.3147C33.9138 21.0525 33.5758 22.6736 32.9075 24.184C32.2349 25.7038 31.22 27.132 29.8714 28.4742C28.5454 29.7936 27.0545 30.7723 25.3925 31.4157C23.7188 32.0635 21.8387 32.3842 19.745 32.3842C18.8686 32.3842 17.9699 32.2929 17.056 32.1172C16.0977 31.933 15.1045 31.6533 14.0852 31.2864L12.6272 30.7614L10.6398 35.3724L12.0455 35.9232C13.283 36.4079 14.5504 36.7658 15.8459 37.0042C17.1505 37.2443 18.4497 37.3602 19.745 37.3602C22.3034 37.3602 24.7326 36.9332 27.0324 36.0712C29.3018 35.2207 31.4268 33.9436 33.4064 32.2329L33.4097 32.2362C35.4412 30.5099 36.96 28.5632 37.9747 26.3965C38.9875 24.2336 39.4898 21.8728 39.4898 19.3147C39.4898 16.9183 39.0069 14.6559 38.0508 12.5364Z" fill="#79D9EE"/>
</svg>
